<svg width="315" height="93" viewBox="0 0 315 93" fill="none" xmlns="http://www.w3.org/2000/svg">
<mask id="mask0_4973_1059" style="mask-type:luminance" maskUnits="userSpaceOnUse" x="0" y="0" width="315" height="93">
<path d="M0 1.01604e-06L314.202 1.01604e-06V93L0 93L0 1.01604e-06Z" fill="white"/>
</mask>
<g mask="url(#mask0_4973_1059)">
<path d="M19.0825 84.8795H21.8681V74.2639H25.6682V71.8582H15.2825V74.2639H19.0825V84.8795ZM31.0331 84.8795H40.6556V82.4742H33.8187V79.2799H39.9629V77.0567H33.8187V74.2639H40.5134V71.8582H31.0331V84.8795ZM46.4467 84.8795H49.2323V80.685L50.8304 79.0253L54.6484 84.8795H58.1465L52.7129 77.0014L57.6673 71.8582H54.1867L49.2323 77.2563V71.8582H46.4467V84.8795ZM63.174 84.8795H65.782V76.161H65.8174L71.0935 84.8795H73.8795V71.8582H71.2712V80.5954H71.2357L65.9421 71.8582H63.174V84.8795ZM80.2387 84.8795H83.0243V71.8582H80.2387V84.8795ZM80.4518 70.5064H82.8467V68.3747H80.4518V70.5064ZM89.3838 84.8795H92.1695V80.685L93.7676 79.0253L97.5855 84.8795H101.084L95.65 77.0014L100.604 71.8582H97.1238L92.1695 77.2563V71.8582H89.3838V84.8795ZM122.996 84.8795H126.086L123.511 81.7979C124.222 80.8683 124.612 79.7557 124.737 78.5891H122.553C122.482 79.1179 122.357 79.6467 122.091 80.139L120.459 78.0778C121.736 77.3664 122.712 76.3629 122.712 74.8297C122.712 72.7875 121.151 71.7127 119.232 71.7127C117.528 71.7127 115.931 72.8786 115.931 74.6842C115.931 75.8336 116.445 76.5998 117.137 77.4575C115.646 78.1696 114.298 79.4098 114.298 81.2336C114.298 83.6953 116.107 85.1352 118.398 85.1352C119.837 85.1352 120.956 84.6067 121.967 83.586L122.996 84.8795ZM120.636 81.8528C120.051 82.5287 119.411 83.003 118.504 83.003C117.563 83.003 116.692 82.2372 116.692 81.2885C116.692 80.2304 117.563 79.5195 118.469 79.1362L120.636 81.8528ZM120.512 74.6842C120.512 75.6329 119.926 76.0889 119.215 76.5454C118.735 75.943 118.22 75.4138 118.22 74.5927C118.22 73.9176 118.735 73.4429 119.357 73.4429C119.979 73.4429 120.512 74.0086 120.512 74.6842ZM142.674 84.8795H145.459V74.2639L149.26 74.2639V71.8582H138.873V74.2639H142.674V84.8795ZM154.624 84.8795H164.247V82.4742H157.41V79.2799H163.554V77.0567H157.41V74.2639H164.105V71.8582L154.624 71.8582V84.8795ZM172.824 74.2639H174.813C177.567 74.2639 178.473 75.9426 178.473 78.5697C178.473 81.4523 176.927 82.4742 175.31 82.4742H172.824V74.2639ZM170.038 84.8795H175.506C179.377 84.8795 181.258 82.0726 181.258 78.2957C181.258 73.9904 178.792 71.8582 175.506 71.8582H170.038V84.8795ZM191.949 75.0686H191.985L193.583 79.8475H190.298L191.949 75.0686ZM185.752 84.8795H188.575L189.57 81.9793H194.311L195.27 84.8795H198.164L193.423 71.8582H190.564L185.752 84.8795ZM205.959 74.0814H209.015C210.276 74.0814 210.933 74.6289 210.933 75.8881C210.933 77.2026 210.276 77.7497 209.015 77.7497H205.959V74.0814ZM203.173 84.8795H205.959V79.7904H208.748C210.151 79.7904 210.666 80.3928 210.862 81.7606C211.004 82.8004 210.986 84.0588 211.305 84.8795H214.092C213.577 84.1682 213.613 82.6175 213.559 81.7968C213.47 80.4656 213.08 79.1343 211.714 78.7522V78.7156C213.133 78.1326 213.719 76.9835 213.719 75.45C213.719 73.4802 212.281 71.8582 210.009 71.8582H203.173V84.8795ZM219.9 84.8795H222.686V71.8582H219.9V84.8795ZM220.114 70.5064H222.509V68.3747H220.114V70.5064ZM229.045 84.8795H231.831V80.685L233.429 79.0253L237.247 84.8795H240.745L235.311 77.0014L240.266 71.8582H236.786L231.831 77.2563V71.8582H229.045V84.8795ZM259.462 75.0686H259.498L261.096 79.8475H257.811L259.462 75.0686ZM253.265 84.8795H256.088L257.083 81.9793H261.825L262.783 84.8795H265.678L260.936 71.8582H258.077L253.265 84.8795ZM270.526 84.8795H273.313V82.0726H270.526V84.8795ZM281.8 88.4373C282.476 88.6922 282.866 88.8374 284.003 88.8374C285.016 88.8374 286.082 88.4373 286.082 87.0158C286.082 86.1219 285.247 85.739 284.448 85.739C284.252 85.739 284.039 85.7752 283.826 85.8667L283.808 85.8301L284.27 85.1897C285.069 85.1714 285.78 85.0799 286.402 84.8799C288.389 84.2238 289.4 82.8205 289.4 81.0149C289.4 78.077 286.579 77.4385 285.638 77.2194C282.458 76.3979 281.854 76.2524 281.854 75.2488C281.854 74.1546 282.884 73.7713 283.772 73.7713C285.123 73.7713 286.189 74.1908 286.277 75.7415H288.975C288.975 72.7326 286.544 71.5484 283.897 71.5484C281.605 71.5484 279.157 72.8054 279.157 75.4858C279.157 77.8945 281.055 78.7156 282.937 79.1903C284.785 79.7195 286.704 79.9203 286.704 81.343C286.703 82.6746 285.212 82.9664 284.234 82.9664C282.742 82.9664 281.428 82.2917 281.428 80.5589H278.73C278.695 82.9482 280.186 84.388 282.085 84.9165C282.529 85.0434 282.973 85.1169 283.435 85.1531L282.582 86.3761L282.955 86.8143C283.186 86.7228 283.417 86.6866 283.666 86.6866C284.075 86.6866 284.376 86.8143 284.376 87.2703C284.376 87.7088 284.092 87.8913 283.666 87.8913C283.044 87.8913 282.546 87.7271 282.174 87.5625L281.8 88.4373ZM294.801 84.8795H297.586V82.0726H294.801V84.8795Z" fill="#06AEEF"/>
<path d="M65.6881 16.5069L98.1459 64.8776L44.7734 64.6723L52.188 53.4279C52.9486 53.5719 53.7316 53.6496 54.5325 53.6496C61.6448 53.6496 67.4101 47.6509 67.4101 40.2509C67.4101 38.1221 66.9328 36.1105 66.0841 34.3236L59.8183 43.0276L52.6694 42.1998L49.8229 35.2783L55.8395 26.9198C55.4099 26.875 54.974 26.8519 54.5325 26.8519C47.4202 26.8519 41.6548 32.8505 41.6548 40.2509C41.6548 42.2013 42.0557 44.0554 42.776 45.727L30.0902 64.6152L10.8079 64.541L43.2667 16.5069C45.6251 12.2004 49.7128 9.72713 54.4769 9.72713C59.2409 9.72713 62.9618 12.4441 65.6881 16.5069Z" fill="#06AEEF"/>
<path d="M289.692 65.7109C288.643 65.7109 287.607 65.5344 286.584 65.1791C285.561 64.8241 284.42 64.0184 283.16 62.7629L250.886 32.6235V64.8107H236.088V19.3551C236.088 17.554 236.337 15.9974 236.835 14.6874C237.333 13.3767 237.99 12.3119 238.803 11.4931C239.616 10.6731 240.561 10.0734 241.637 9.69085C242.713 9.30905 243.828 9.11797 244.983 9.11797C245.979 9.11797 246.989 9.29449 248.013 9.65016C249.036 10.0051 250.204 10.8108 251.516 12.0663L283.79 42.2057V10.0185H298.667V55.3912C298.667 57.1939 298.417 58.7501 297.919 60.0601C297.421 61.3708 296.764 62.449 295.951 63.2958C295.138 64.1415 294.18 64.7558 293.078 65.1376C291.975 65.5198 290.848 65.7109 289.692 65.7109ZM230.734 50.7242L220.266 64.8107H169.573V10.0185H230.577L220.029 24.2692H185.945V30.8217H227.664L218.297 43.2701H185.945V50.7242H230.734ZM126.514 30.5753L160.204 30.5753V64.8107H124.073C119.508 64.8107 115.284 64.1012 111.4 62.6812C107.518 61.2607 104.172 59.3096 101.364 56.8251C98.5567 54.3407 96.3533 51.3919 94.7522 47.9804C93.1515 44.5674 92.3513 40.8681 92.3513 36.8822C92.3513 32.896 93.1515 29.2516 94.7522 25.9483C96.3533 22.6446 98.5567 19.8056 101.364 17.4312C104.172 15.0557 107.518 13.2259 111.4 11.9435C115.284 10.6601 119.508 10.0185 124.073 10.0185L161.779 10.0185L151.231 24.2692L124.073 24.2692C121.87 24.2692 119.824 24.5965 117.934 25.2519C116.045 25.9072 114.405 26.8354 113.014 28.0364C111.624 29.2385 110.535 30.644 109.748 32.2548C108.961 33.8659 108.567 35.6529 108.567 37.6197C108.567 39.5843 108.947 41.3734 109.708 42.9842C110.469 44.5939 111.546 45.9725 112.936 47.1201C114.326 48.2663 115.966 49.1534 117.856 49.7811C119.744 50.4089 121.818 50.7242 124.073 50.7242H143.989V42.779H116.753L126.514 30.5753Z" fill="#06AEEF"/>
</g>
</svg>
